<svg xmlns="http://www.w3.org/2000/svg" viewBox="0 0 1215 1291"><path fill="#165098" d="M147 145A419 419 0 0 0 9 321c-27 83 11 168 47 242 36 75 76 149 110 227 27 61 65 134 56 202-7 49-23 96-32 145-7 32 23 0 34-9 63-54 132-116 157-199 13-41 6-79-9-119-14-38-30-74-47-112a12237 12237 0 0 0-148-313 391 391 0 0 1-20-177c2-20 7-38 9-57 2-11-7-15-19-6zm827 0a420 420 0 0 0-138 176c-27 83 11 168 47 242 36 75 76 149 110 227 28 62 66 134 57 202-8 49-24 96-33 145-7 32 24 0 34-9 63-54 132-116 157-199 13-41 6-79-9-119-14-38-30-74-47-112a12237 12237 0 0 0-148-312 391 391 0 0 1-20-177c2-20 8-38 9-58 2-11-7-15-19-6z"/><path fill="#5c9dd5" d="M547 8a657 657 0 0 0-169 190c-28 52-31 106-17 160 18 65 44 130 71 193 52 122 121 235 171 358 18 43 38 92 42 141 3 60-17 123-33 179-3 16-14 38-12 54 1 13 9 7 16 2 31-24 61-51 88-78 74-70 159-164 152-274-3-46-25-89-43-130-20-49-42-96-63-143-40-88-82-175-125-262-14-31-32-59-43-90-16-42-24-85-25-128-2-33 0-67 3-100 2-21 9-41 9-63 6-20-5-22-22-9z"/></svg>